<svg width="1505" height="1503" viewBox="0 0 1505 1503" fill="none" xmlns="http://www.w3.org/2000/svg">
<g clip-path="url(#clip0_115_215)">
<path d="M1168.47 0H643.847C621.295 0 599.681 8.94696 583.731 24.8974L361.33 247.298C352.752 255.876 344.14 264.488 344.14 285.097C344.14 285.097 344.14 336.634 392.226 336.634H1168.47V0Z" fill="#FFC900"/>
<path opacity="0.89" d="M832.135 336.634H1168.47V0L832.135 336.634Z" fill="url(#paint0_linear_115_215)"/>
<path d="M1168.47 0L832.135 336.634H1168.47V0Z" fill="url(#paint1_linear_115_215)"/>
<path d="M1496.49 28.2819C1486.94 11.8624 1466.33 -0.334944 1446.23 0.00014796H1168.47C1168.47 0.00014796 1168.47 884.744 1168.47 1112.88C1168.47 1160.96 1217.46 1160.96 1220.04 1160.96C1240.65 1160.96 1249.26 1152.38 1257.84 1143.77L1480.24 921.37C1496.19 905.42 1504.97 883.806 1504.97 861.254V54.7877C1505 45.7403 1501.62 36.7263 1496.49 28.2819Z" fill="#FF445F"/>
<path d="M337.237 1169.54V391.388C337.237 343.168 285.566 343.168 285.566 343.168C264.89 343.168 256.312 351.78 247.7 360.392L24.7298 583.362C8.74591 599.312 0 620.993 0 643.612V1169.54H337.237Z" fill="#08B1D5"/>
<path opacity="0.82" d="M0 1169.54L337.237 832.336V1169.54H0Z" fill="url(#paint2_linear_115_215)"/>
<path d="M0 1169.54L337.237 832.336V1169.54H0Z" fill="url(#paint3_linear_115_215)"/>
<path d="M28.5504 1494.85C12.0638 1485.3 -0.301066 1464.62 0.000517103 1444.52V1169.54C0.000517103 1169.54 888.565 1169.54 1115.42 1169.54C1163.64 1169.54 1163.68 1214.01 1163.68 1216.62C1163.71 1237.29 1155.1 1245.91 1146.49 1254.52L923.548 1477.46C907.564 1493.47 886.152 1502.55 863.567 1502.55H55.1232C46.0757 1502.52 36.9947 1499.97 28.5504 1494.85Z" fill="#1904DA"/>
</g>
<defs>
<linearGradient id="paint0_linear_115_215" x1="933.257" y1="403.543" x2="1256.11" y2="80.6939" gradientUnits="userSpaceOnUse">
<stop stop-color="#FF445F" stop-opacity="0"/>
<stop offset="1" stop-color="#FF445F" stop-opacity="0.3"/>
</linearGradient>
<linearGradient id="paint1_linear_115_215" x1="1168.47" y1="168.338" x2="832.119" y2="168.338" gradientUnits="userSpaceOnUse">
<stop stop-color="#FF445F" stop-opacity="0.4"/>
<stop offset="0.00761682" stop-color="#FF445F" stop-opacity="0.3873"/>
<stop offset="0.2406" stop-color="#FF445F" stop-opacity="0"/>
</linearGradient>
<linearGradient id="paint2_linear_115_215" x1="66.5859" y1="1270.35" x2="411.837" y2="926.681" gradientUnits="userSpaceOnUse">
<stop stop-color="#1904DA" stop-opacity="0.2"/>
<stop offset="1" stop-color="#1904DA" stop-opacity="0"/>
</linearGradient>
<linearGradient id="paint3_linear_115_215" x1="168.62" y1="1169.53" x2="168.62" y2="832.35" gradientUnits="userSpaceOnUse">
<stop stop-color="#1904DA" stop-opacity="0.3"/>
<stop offset="0.00761682" stop-color="#1904DA" stop-opacity="0.2905"/>
<stop offset="0.2406" stop-color="#1904DA" stop-opacity="0"/>
</linearGradient>
<clipPath id="clip0_115_215">
<rect width="1505" height="1502.52" fill="white"/>
</clipPath>
</defs>
</svg>
